<svg width="120" height="120" viewBox="0 0 120 120" fill="none" xmlns="http://www.w3.org/2000/svg">
<rect width="120" height="120" fill="#F3F5FA"/>
<path d="M83.8126 62C82.6038 62 81.6252 62.9617 81.6252 64.1496C81.6252 69.4151 77.2643 73.7007 71.9063 73.7007C66.5484 73.7007 62.1874 69.4151 62.1874 64.1496C62.1874 62.9617 61.2088 62 60 62C58.7912 62 57.8126 62.9617 57.8126 64.1496C57.8126 69.4151 53.4516 73.7007 48.0937 73.7007C42.7357 73.7007 38.3748 69.4151 38.3748 64.1496C38.3748 62.9617 37.3962 62 36.1874 62C34.9786 62 34 62.9617 34 64.1496C34 71.7865 40.3227 78 48.0937 78C53.0994 78 57.4995 75.4205 60 71.5466C62.5005 75.4205 66.9029 78 71.9063 78C79.6773 78 86 71.7865 86 64.1496C86 62.9617 85.0214 62 83.8126 62Z" fill="#D9DBE0"/>
<path d="M48 56C50.2091 56 52 54.2091 52 52C52 49.7909 50.2091 48 48 48C45.7909 48 44 49.7909 44 52C44 54.2091 45.7909 56 48 56Z" fill="#D9DBE0"/>
<path d="M72 56C74.2091 56 76 54.2091 76 52C76 49.7909 74.2091 48 72 48C69.7909 48 68 49.7909 68 52C68 54.2091 69.7909 56 72 56Z" fill="#D9DBE0"/>
</svg>
