<svg width="32" height="32" viewBox="0 0 32 32" fill="none" xmlns="http://www.w3.org/2000/svg">
<g clip-path="url(#clip0_250_2309)">
<rect width="32" height="32" rx="5" fill="#2E6FF2"/>
<rect width="32" height="32" fill="#2E6FF2"/>
<path d="M25.0714 16C24.6109 16 24.2382 16.3664 24.2382 16.8189C24.2382 18.8248 22.5768 20.4574 20.5357 20.4574C18.4946 20.4574 16.8333 18.8248 16.8333 16.8189C16.8333 16.3664 16.4605 16 16 16C15.5395 16 15.1667 16.3664 15.1667 16.8189C15.1667 18.8248 13.5054 20.4574 11.4642 20.4574C9.42312 20.4574 7.7618 18.8248 7.7618 16.8189C7.7618 16.3664 7.38901 16 6.92851 16C6.468 16 6.09521 16.3664 6.09521 16.8189C6.09521 19.7282 8.50387 22.0952 11.4642 22.0952C13.3712 22.0952 15.0474 21.1126 16 19.6368C16.9526 21.1126 18.6297 22.0952 20.5357 22.0952C23.4961 22.0952 25.9047 19.7282 25.9047 16.8189C25.9047 16.3664 25.5319 16 25.0714 16Z" fill="white"/>
<path d="M11.4286 13.7142C12.2702 13.7142 12.9524 13.032 12.9524 12.1904C12.9524 11.3489 12.2702 10.6666 11.4286 10.6666C10.587 10.6666 9.90479 11.3489 9.90479 12.1904C9.90479 13.032 10.587 13.7142 11.4286 13.7142Z" fill="white"/>
<path d="M20.5714 13.7142C21.413 13.7142 22.0952 13.032 22.0952 12.1904C22.0952 11.3489 21.413 10.6666 20.5714 10.6666C19.7298 10.6666 19.0476 11.3489 19.0476 12.1904C19.0476 13.032 19.7298 13.7142 20.5714 13.7142Z" fill="white"/>
</g>
<defs>
<clipPath id="clip0_250_2309">
<rect width="32" height="32" rx="5" fill="white"/>
</clipPath>
</defs>
</svg>
